<?xml version="1.0" encoding="UTF-8"?>
<svg xmlns="http://www.w3.org/2000/svg" xmlns:xlink="http://www.w3.org/1999/xlink" width="800pt" height="800pt" viewBox="0 0 800 800" version="1.1">
<g id="surface1">
<path style=" stroke:none;fill-rule:evenodd;fill:rgb(0%,0%,0%);fill-opacity:1;" d="M 177.390625 296.652344 C 136.378906 344.8125 97.058594 404.535156 96.664062 449.175781 C 96.511719 465.972656 101.875 480.636719 114.734375 491.742188 C 133.246094 507.738281 153.640625 513.378906 173.9375 513.410156 C 203.59375 513.453125 233.042969 501.488281 256.105469 492.261719 C 294.9375 476.730469 724.21875 290.3125 724.21875 290.3125 C 728.359375 288.234375 727.585938 285.648438 722.402344 286.941406 C 720.308594 287.464844 255.0625 413.546875 255.0625 413.546875 C 246.25 416.039062 237.144531 417.34375 227.984375 417.421875 C 192.230469 417.632812 160.414062 397.789062 160.671875 355.964844 C 160.769531 339.601562 165.78125 319.867188 177.390625 296.652344 Z M 177.390625 296.652344 "/>
</g>
</svg>
